<svg xmlns="http://www.w3.org/2000/svg" xmlns:xlink="http://www.w3.org/1999/xlink" width="500" zoomAndPan="magnify" viewBox="0 0 375 374.999991" height="500" preserveAspectRatio="xMidYMid meet" version="1.0"><defs><g/><clipPath id="78eab4759b"><path d="M 123 66 L 266.210938 66 L 266.210938 242.960938 L 123 242.960938 Z M 123 66 " clip-rule="nonzero"/></clipPath><clipPath id="fdf24980d1"><path d="M 108.414062 14.886719 L 199 14.886719 L 199 230 L 108.414062 230 Z M 108.414062 14.886719 " clip-rule="nonzero"/></clipPath></defs><g clip-path="url(#78eab4759b)"><path fill="#02629e" d="M 165.066406 81.390625 L 124.207031 214.484375 C 122.445312 220.230469 124.75 225.574219 129.453125 226.359375 L 228.941406 242.8125 C 235.476562 243.894531 241.734375 238.945312 242.777344 231.863281 L 266.046875 73.722656 C 266.703125 69.304688 262.886719 66.140625 257.585938 66.597656 L 174.523438 73.808594 C 170.453125 74.1875 166.25 77.535156 165.066406 81.390625 Z M 226.824219 76.449219 C 226.730469 76.761719 226.59375 77.054688 226.410156 77.328125 C 226.226562 77.597656 226.007812 77.835938 225.75 78.042969 C 225.496094 78.246094 225.214844 78.410156 224.910156 78.527344 C 224.605469 78.648438 224.289062 78.71875 223.960938 78.742188 L 196.523438 80.761719 C 196.398438 80.789062 196.273438 80.796875 196.148438 80.792969 C 196.019531 80.785156 195.894531 80.761719 195.773438 80.722656 C 195.65625 80.683594 195.539062 80.628906 195.433594 80.558594 C 195.328125 80.492188 195.230469 80.410156 195.144531 80.316406 C 195.058594 80.21875 194.988281 80.117188 194.929688 80.003906 C 194.871094 79.890625 194.832031 79.773438 194.804688 79.648438 C 194.777344 79.523438 194.765625 79.398438 194.773438 79.269531 C 194.777344 79.144531 194.800781 79.019531 194.839844 78.898438 C 195.039062 78.296875 195.386719 77.800781 195.882812 77.40625 C 196.375 77.007812 196.9375 76.78125 197.566406 76.714844 L 224.828125 74.570312 C 226.191406 74.464844 227.074219 75.320312 226.824219 76.476562 Z M 173.046875 214.234375 C 173.421875 212.683594 174.824219 211.566406 176.179688 211.742188 L 184.640625 212.84375 C 186.050781 213.027344 186.890625 214.460938 186.53125 216.050781 L 184.296875 225.976562 C 183.929688 227.621094 182.46875 228.800781 181.050781 228.554688 L 172.476562 227.21875 C 171.066406 227.007812 170.304688 225.53125 170.691406 223.929688 Z M 170.171875 90.300781 C 170.332031 89.835938 170.550781 89.40625 170.832031 89.003906 C 171.117188 88.605469 171.449219 88.253906 171.828125 87.949219 C 172.210938 87.640625 172.628906 87.394531 173.082031 87.207031 C 173.53125 87.023438 174 86.902344 174.488281 86.847656 L 250.265625 81.800781 C 252.613281 81.644531 254.265625 83.140625 253.941406 85.152344 L 234.433594 204.089844 C 234.382812 204.429688 234.300781 204.757812 234.1875 205.082031 C 234.074219 205.40625 233.929688 205.714844 233.757812 206.011719 C 233.589844 206.304688 233.390625 206.582031 233.167969 206.84375 C 232.945312 207.101562 232.699219 207.335938 232.429688 207.550781 C 232.164062 207.761719 231.878906 207.945312 231.574219 208.105469 C 231.273438 208.265625 230.957031 208.394531 230.628906 208.496094 C 230.304688 208.59375 229.96875 208.664062 229.628906 208.699219 C 229.289062 208.738281 228.949219 208.742188 228.609375 208.714844 L 142.117188 198.695312 C 140.003906 198.457031 138.945312 196.273438 139.664062 193.839844 Z M 170.171875 90.300781 " fill-opacity="1" fill-rule="nonzero"/></g><path fill="#ffffff" d="M 191.339844 76.519531 C 189.011719 76.398438 186.699219 76.425781 184.394531 76.519531 C 183.238281 76.519531 182.089844 76.632812 180.933594 76.695312 L 177.484375 76.949219 L 175.761719 77.113281 L 174.894531 77.195312 C 174.570312 77.230469 174.246094 77.292969 173.929688 77.378906 C 172.699219 77.746094 171.621094 78.371094 170.699219 79.265625 C 169.746094 80.113281 169.085938 81.148438 168.71875 82.371094 C 168.464844 83.527344 168.238281 84.644531 168.054688 85.808594 C 168.5625 84.757812 169 83.691406 169.464844 82.617188 C 169.949219 81.640625 170.628906 80.832031 171.511719 80.191406 C 172.351562 79.527344 173.292969 79.066406 174.332031 78.8125 C 174.5625 78.761719 174.800781 78.726562 175.035156 78.707031 L 175.898438 78.644531 L 177.625 78.503906 L 181.074219 78.15625 C 182.214844 78.015625 183.363281 77.902344 184.507812 77.734375 C 186.785156 77.40625 189.070312 77.011719 191.339844 76.519531 Z M 191.339844 76.519531 " fill-opacity="1" fill-rule="nonzero"/><path fill="#02629e" d="M 232.453125 177.855469 L 246.59375 90.714844 C 246.625 90.5 246.636719 90.285156 246.625 90.070312 C 246.609375 89.851562 246.574219 89.640625 246.515625 89.433594 C 246.453125 89.222656 246.371094 89.023438 246.265625 88.835938 C 246.160156 88.644531 246.035156 88.46875 245.890625 88.304688 C 245.746094 88.144531 245.585938 88 245.410156 87.875 C 245.234375 87.75 245.046875 87.644531 244.847656 87.558594 C 244.644531 87.476562 244.4375 87.414062 244.226562 87.375 C 244.011719 87.339844 243.796875 87.324219 243.582031 87.335938 L 221.785156 88.378906 L 241.753906 90.269531 C 241.9375 90.296875 242.105469 90.355469 242.265625 90.449219 C 242.425781 90.542969 242.5625 90.664062 242.671875 90.808594 C 242.785156 90.957031 242.863281 91.117188 242.914062 91.296875 C 242.960938 91.476562 242.976562 91.65625 242.953125 91.839844 Z M 232.453125 177.855469 " fill-opacity="1" fill-rule="nonzero"/><path fill="#ffffff" d="M 246.632812 183.617188 L 238.453125 229.238281 C 238.335938 229.882812 238.15625 230.507812 237.917969 231.121094 C 237.679688 231.730469 237.386719 232.3125 237.035156 232.863281 C 236.6875 233.417969 236.285156 233.933594 235.835938 234.410156 C 235.386719 234.886719 234.898438 235.3125 234.367188 235.695312 C 233.835938 236.078125 233.269531 236.40625 232.675781 236.679688 C 232.082031 236.953125 231.46875 237.167969 230.832031 237.320312 C 230.195312 237.476562 229.550781 237.570312 228.898438 237.601562 C 228.242188 237.632812 227.59375 237.597656 226.945312 237.503906 L 196.699219 233.128906 L 225.5625 234.292969 C 226.144531 234.316406 226.722656 234.289062 227.300781 234.214844 C 227.875 234.136719 228.441406 234.015625 228.996094 233.84375 C 229.550781 233.667969 230.089844 233.449219 230.605469 233.1875 C 231.125 232.921875 231.617188 232.613281 232.082031 232.265625 C 232.546875 231.917969 232.980469 231.53125 233.378906 231.109375 C 233.777344 230.6875 234.136719 230.230469 234.460938 229.746094 C 234.78125 229.261719 235.058594 228.753906 235.296875 228.222656 C 235.53125 227.6875 235.71875 227.140625 235.859375 226.578125 Z M 246.632812 183.617188 " fill-opacity="1" fill-rule="nonzero"/><path fill="#ffb200" d="M 176.109375 135.410156 L 195.027344 113.867188 L 178.367188 223.84375 L 168.21875 159.988281 L 153.085938 172.957031 L 112.105469 18.449219 L 131.765625 23.273438 L 152.105469 28.25 L 172.292969 33.199219 Z M 176.109375 135.410156 " fill-opacity="1" fill-rule="nonzero"/><path fill="#ffee00" d="M 176.109375 135.410156 L 195.027344 113.867188 L 178.367188 223.84375 L 168.78125 158.066406 L 161.238281 165.507812 L 131.765625 23.273438 L 152.105469 28.25 L 172.292969 33.199219 Z M 176.109375 135.410156 " fill-opacity="1" fill-rule="nonzero"/><path fill="#ffffff" d="M 176.109375 135.410156 L 195.027344 113.867188 L 178.367188 223.84375 L 178.535156 144.597656 L 168.902344 152.855469 L 152.105469 28.25 L 172.292969 33.199219 Z M 176.109375 135.410156 " fill-opacity="1" fill-rule="nonzero"/><g clip-path="url(#fdf24980d1)"><path fill="#02629e" d="M 178.464844 128.796875 L 174.8125 31.125 L 108.476562 14.886719 L 151.632812 177.625 L 166.382812 164.980469 L 176.664062 229.703125 L 180.242188 228.757812 L 198.921875 105.484375 Z M 170.058594 154.988281 L 154.542969 168.296875 L 115.738281 22.015625 L 169.769531 35.253906 L 173.761719 142.035156 L 191.128906 122.265625 L 178.289062 206.914062 Z M 170.058594 154.988281 " fill-opacity="1" fill-rule="nonzero"/></g><g fill="#02629e" fill-opacity="1"><g transform="translate(16.480375, 299.438674)"><g><path d="M 8.898438 0 L 16.324219 0 L 16.324219 -18.945312 L 24.1875 -18.945312 L 24.1875 -25.851562 L 1.035156 -25.851562 L 1.035156 -18.945312 L 8.898438 -18.945312 Z M 8.898438 0 "/></g></g></g><g fill="#02629e" fill-opacity="1"><g transform="translate(45.318039, 299.438674)"><g><path d="M 18.167969 0 L 25.628906 0 L 25.628906 -25.851562 L 18.167969 -25.851562 L 18.167969 -16.582031 L 10.191406 -16.582031 L 10.191406 -25.851562 L 2.734375 -25.851562 L 2.734375 0 L 10.191406 0 L 10.191406 -9.710938 L 18.167969 -9.710938 Z M 18.167969 0 "/></g></g></g><g fill="#02629e" fill-opacity="1"><g transform="translate(77.294028, 299.438674)"><g><path d="M 13.847656 0.554688 C 20.828125 0.554688 25.148438 -3.691406 25.148438 -10.636719 L 25.148438 -25.851562 L 17.726562 -25.851562 L 17.726562 -11.117188 C 17.726562 -8.050781 16.433594 -6.425781 13.847656 -6.425781 C 11.261719 -6.425781 9.972656 -8.050781 9.972656 -11.117188 L 9.972656 -25.851562 L 2.511719 -25.851562 L 2.511719 -10.636719 C 2.511719 -3.691406 6.867188 0.554688 13.847656 0.554688 Z M 13.847656 0.554688 "/></g></g></g><g fill="#02629e" fill-opacity="1"><g transform="translate(108.605431, 299.438674)"><g><path d="M 2.734375 0 L 10.117188 0 L 10.117188 -13.183594 L 19.941406 0 L 26 0 L 26 -25.851562 L 18.648438 -25.851562 L 18.648438 -12.742188 L 8.828125 -25.851562 L 2.734375 -25.851562 Z M 2.734375 0 "/></g></g></g><g fill="#02629e" fill-opacity="1"><g transform="translate(140.987541, 299.438674)"><g><path d="M 2.734375 0 L 13.699219 0 C 22.046875 0 27.585938 -5.132812 27.585938 -12.925781 C 27.585938 -20.679688 22.046875 -25.851562 13.699219 -25.851562 L 2.734375 -25.851562 Z M 10.191406 -6.683594 L 10.191406 -19.167969 L 13.480469 -19.167969 C 17.429688 -19.167969 19.980469 -16.730469 19.980469 -12.925781 C 19.980469 -9.121094 17.429688 -6.683594 13.480469 -6.683594 Z M 10.191406 -6.683594 "/></g></g></g><g fill="#02629e" fill-opacity="1"><g transform="translate(173.443505, 299.438674)"><g><path d="M 2.734375 0 L 20.867188 0 L 20.867188 -6.09375 L 10.117188 -6.09375 L 10.117188 -10.082031 L 19.460938 -10.082031 L 19.460938 -16.066406 L 10.117188 -16.066406 L 10.117188 -19.832031 L 20.460938 -19.832031 L 20.460938 -25.851562 L 2.734375 -25.851562 Z M 2.734375 0 "/></g></g></g><g fill="#02629e" fill-opacity="1"><g transform="translate(199.585895, 299.438674)"><g><path d="M 2.734375 0 L 10.191406 0 L 10.191406 -7.347656 L 13 -7.347656 L 16.691406 0 L 25.148438 0 L 20.386719 -8.714844 C 23.117188 -10.230469 24.667969 -12.960938 24.667969 -16.582031 C 24.667969 -22.304688 20.792969 -25.851562 14.511719 -25.851562 L 2.734375 -25.851562 Z M 10.042969 -13.292969 L 10.042969 -19.757812 L 13.515625 -19.757812 C 15.878906 -19.757812 17.171875 -18.613281 17.171875 -16.542969 C 17.171875 -14.476562 15.878906 -13.292969 13.515625 -13.292969 Z M 10.042969 -13.292969 "/></g></g></g><g fill="#02629e" fill-opacity="1"><g transform="translate(229.789643, 299.438674)"><g/></g></g><g fill="#02629e" fill-opacity="1"><g transform="translate(241.938795, 299.438674)"><g><path d="M 8.898438 0 L 16.324219 0 L 16.324219 -18.945312 L 24.1875 -18.945312 L 24.1875 -25.851562 L 1.035156 -25.851562 L 1.035156 -18.945312 L 8.898438 -18.945312 Z M 8.898438 0 "/></g></g></g><g fill="#02629e" fill-opacity="1"><g transform="translate(270.776455, 299.438674)"><g><path d="M 2.734375 0 L 20.867188 0 L 20.867188 -6.09375 L 10.117188 -6.09375 L 10.117188 -10.082031 L 19.460938 -10.082031 L 19.460938 -16.066406 L 10.117188 -16.066406 L 10.117188 -19.832031 L 20.460938 -19.832031 L 20.460938 -25.851562 L 2.734375 -25.851562 Z M 2.734375 0 "/></g></g></g><g fill="#02629e" fill-opacity="1"><g transform="translate(296.918844, 299.438674)"><g><path d="M 14.808594 0.554688 C 21.9375 0.554688 27.328125 -3.765625 28.4375 -10.339844 L 20.867188 -10.339844 C 19.941406 -7.902344 17.761719 -6.351562 14.957031 -6.351562 C 11.335938 -6.351562 8.828125 -9.046875 8.828125 -12.925781 C 8.828125 -16.839844 11.375 -19.5 15.03125 -19.5 C 17.726562 -19.5 19.980469 -17.984375 20.753906 -15.660156 L 28.289062 -15.660156 C 26.957031 -22.195312 21.640625 -26.40625 14.734375 -26.40625 C 6.757812 -26.40625 1.253906 -20.902344 1.253906 -12.925781 C 1.253906 -4.949219 6.757812 0.554688 14.808594 0.554688 Z M 14.808594 0.554688 "/></g></g></g><g fill="#02629e" fill-opacity="1"><g transform="translate(330.150158, 299.438674)"><g><path d="M 18.167969 0 L 25.628906 0 L 25.628906 -25.851562 L 18.167969 -25.851562 L 18.167969 -16.582031 L 10.191406 -16.582031 L 10.191406 -25.851562 L 2.734375 -25.851562 L 2.734375 0 L 10.191406 0 L 10.191406 -9.710938 L 18.167969 -9.710938 Z M 18.167969 0 "/></g></g></g><g fill="#02629e" fill-opacity="1"><g transform="translate(75.612585, 333.095434)"><g><path d="M 8.433594 0 L 8.433594 -14.441406 L 13.816406 -14.441406 L 13.816406 -16.976562 L 0.265625 -16.976562 L 0.265625 -14.441406 L 5.605469 -14.441406 L 5.605469 0 Z M 8.433594 0 "/></g></g></g><g fill="#02629e" fill-opacity="1"><g transform="translate(96.78493, 333.095434)"><g><path d="M 12.816406 0 L 12.816406 -2.535156 L 4.40625 -2.535156 L 4.40625 -7.253906 L 11.882812 -7.253906 L 11.882812 -9.769531 L 4.40625 -9.769531 L 4.40625 -14.441406 L 12.816406 -14.441406 L 12.816406 -16.976562 L 1.578125 -16.976562 L 1.578125 0 Z M 12.816406 0 "/></g></g></g><g fill="#02629e" fill-opacity="1"><g transform="translate(117.668259, 333.095434)"><g><path d="M 9.035156 0.289062 C 13.105469 0.289062 15.621094 -1.9375 16.132812 -5.382812 L 13.039062 -5.382812 C 12.683594 -3.269531 11.125 -2.226562 8.988281 -2.226562 C 5.628906 -2.226562 3.871094 -4.828125 3.871094 -8.5 C 3.871094 -12.148438 5.628906 -14.730469 8.988281 -14.730469 C 11.125 -14.730469 12.683594 -13.683594 13.039062 -11.859375 L 16.132812 -11.859375 C 15.640625 -15.0625 13.105469 -17.246094 9.035156 -17.246094 C 3.492188 -17.246094 0.957031 -13.148438 0.957031 -8.5 C 0.957031 -3.847656 3.492188 0.289062 9.035156 0.289062 Z M 9.035156 0.289062 "/></g></g></g><g fill="#02629e" fill-opacity="1"><g transform="translate(141.686252, 333.095434)"><g><path d="M 4.40625 0 L 4.40625 -7.253906 L 12.082031 -7.253906 L 12.082031 0 L 14.90625 0 L 14.90625 -16.976562 L 12.082031 -16.976562 L 12.082031 -9.769531 L 4.40625 -9.769531 L 4.40625 -16.976562 L 1.578125 -16.976562 L 1.578125 0 Z M 4.40625 0 "/></g></g></g><g fill="#02629e" fill-opacity="1"><g transform="translate(165.326299, 333.095434)"><g><path d="M 4.40625 0 L 4.40625 -13.082031 L 11.59375 0 L 14.996094 0 L 14.996094 -16.976562 L 12.195312 -16.976562 L 12.195312 -3.894531 L 5.007812 -16.976562 L 1.578125 -16.976562 L 1.578125 0 Z M 4.40625 0 "/></g></g></g><g fill="#02629e" fill-opacity="1"><g transform="translate(189.033055, 333.095434)"><g><path d="M 9.078125 0.289062 C 14.597656 0.289062 17.199219 -3.828125 17.199219 -8.5 C 17.199219 -13.171875 14.597656 -17.246094 9.078125 -17.246094 C 3.539062 -17.246094 0.957031 -13.171875 0.957031 -8.5 C 0.957031 -3.828125 3.539062 0.289062 9.078125 0.289062 Z M 9.078125 -2.246094 C 5.742188 -2.246094 3.871094 -4.828125 3.871094 -8.5 C 3.871094 -12.148438 5.742188 -14.730469 9.078125 -14.730469 C 12.4375 -14.730469 14.285156 -12.148438 14.285156 -8.5 C 14.285156 -4.828125 12.4375 -2.246094 9.078125 -2.246094 Z M 9.078125 -2.246094 "/></g></g></g><g fill="#02629e" fill-opacity="1"><g transform="translate(214.31825, 333.095434)"><g><path d="M 11.75 0 L 11.75 -2.535156 L 4.40625 -2.535156 L 4.40625 -16.976562 L 1.578125 -16.976562 L 1.578125 0 Z M 11.75 0 "/></g></g></g><g fill="#02629e" fill-opacity="1"><g transform="translate(233.445284, 333.095434)"><g><path d="M 9.078125 0.289062 C 14.597656 0.289062 17.199219 -3.828125 17.199219 -8.5 C 17.199219 -13.171875 14.597656 -17.246094 9.078125 -17.246094 C 3.539062 -17.246094 0.957031 -13.171875 0.957031 -8.5 C 0.957031 -3.828125 3.539062 0.289062 9.078125 0.289062 Z M 9.078125 -2.246094 C 5.742188 -2.246094 3.871094 -4.828125 3.871094 -8.5 C 3.871094 -12.148438 5.742188 -14.730469 9.078125 -14.730469 C 12.4375 -14.730469 14.285156 -12.148438 14.285156 -8.5 C 14.285156 -4.828125 12.4375 -2.246094 9.078125 -2.246094 Z M 9.078125 -2.246094 "/></g></g></g><g fill="#02629e" fill-opacity="1"><g transform="translate(258.73049, 333.095434)"><g><path d="M 9.144531 0.289062 C 11.035156 0.289062 13.082031 -0.355469 14.285156 -2.089844 L 14.285156 0 L 16.867188 0 L 16.867188 -9.121094 L 10.214844 -9.121094 L 10.214844 -6.742188 L 14.0625 -6.742188 C 14.019531 -3.847656 12.195312 -2.226562 9.300781 -2.226562 C 5.675781 -2.226562 3.847656 -5.007812 3.847656 -8.523438 C 3.847656 -11.902344 5.539062 -14.730469 9.101562 -14.730469 C 11.414062 -14.730469 12.925781 -13.660156 13.527344 -11.882812 L 16.664062 -11.882812 C 15.863281 -15.085938 13.328125 -17.246094 9.121094 -17.246094 C 3.492188 -17.246094 0.933594 -13.0625 0.933594 -8.476562 C 0.933594 -3.917969 3.472656 0.289062 9.144531 0.289062 Z M 9.144531 0.289062 "/></g></g></g><g fill="#02629e" fill-opacity="1"><g transform="translate(283.971211, 333.095434)"><g><path d="M 9.191406 0 L 9.191406 -6.585938 L 15.398438 -16.976562 L 12.125 -16.976562 L 7.675781 -9.34375 L 3.269531 -16.976562 L -0.0234375 -16.976562 L 6.230469 -6.585938 L 6.230469 0 Z M 9.191406 0 "/></g></g></g></svg>